<svg width="92" height="31" viewBox="0 0 92 31" fill="none" xmlns="http://www.w3.org/2000/svg">
<rect x="3.5" y="2.5" width="24" height="26" rx="3.5" stroke="#B48811"/>
<rect width="25" height="26" rx="4" fill="url(#paint0_linear_239_1176)"/>
<path d="M7.844 15V11.316L8.492 13.008L4.676 6.6H7.664L10.244 10.98H8.504L11.108 6.6H13.844L10.052 13.008L10.676 11.316V15H7.844Z" fill="white"/>
<path d="M17.132 10.6H19.964V19H17.132V10.6ZM14.516 19H11.684V10.6H14.516V19ZM17.324 15.904H14.324V13.576H17.324V15.904Z" fill="white"/>
<path d="M33.844 12V8.316L34.492 10.008L30.676 3.6H33.664L36.244 7.98H34.504L37.108 3.6H39.844L36.052 10.008L36.676 8.316V12H33.844ZM44.2443 12.192C43.5643 12.192 42.9323 12.084 42.3483 11.868C41.7723 11.652 41.2723 11.348 40.8483 10.956C40.4243 10.556 40.0923 10.088 39.8523 9.552C39.6203 9.016 39.5043 8.432 39.5043 7.8C39.5043 7.16 39.6203 6.576 39.8523 6.048C40.0923 5.512 40.4243 5.048 40.8483 4.656C41.2723 4.256 41.7723 3.948 42.3483 3.732C42.9323 3.516 43.5643 3.408 44.2443 3.408C44.9323 3.408 45.5643 3.516 46.1403 3.732C46.7163 3.948 47.2163 4.256 47.6403 4.656C48.0643 5.048 48.3923 5.512 48.6243 6.048C48.8643 6.576 48.9843 7.16 48.9843 7.8C48.9843 8.432 48.8643 9.016 48.6243 9.552C48.3923 10.088 48.0643 10.556 47.6403 10.956C47.2163 11.348 46.7163 11.652 46.1403 11.868C45.5643 12.084 44.9323 12.192 44.2443 12.192ZM44.2443 9.9C44.5083 9.9 44.7523 9.852 44.9763 9.756C45.2083 9.66 45.4083 9.524 45.5763 9.348C45.7523 9.164 45.8883 8.944 45.9843 8.688C46.0803 8.424 46.1283 8.128 46.1283 7.8C46.1283 7.472 46.0803 7.18 45.9843 6.924C45.8883 6.66 45.7523 6.44 45.5763 6.264C45.4083 6.08 45.2083 5.94 44.9763 5.844C44.7523 5.748 44.5083 5.7 44.2443 5.7C43.9803 5.7 43.7323 5.748 43.5003 5.844C43.2763 5.94 43.0763 6.08 42.9003 6.264C42.7323 6.44 42.6003 6.66 42.5043 6.924C42.4083 7.18 42.3603 7.472 42.3603 7.8C42.3603 8.128 42.4083 8.424 42.5043 8.688C42.6003 8.944 42.7323 9.164 42.9003 9.348C43.0763 9.524 43.2763 9.66 43.5003 9.756C43.7323 9.852 43.9803 9.9 44.2443 9.9ZM54.0321 12.192C52.7441 12.192 51.7401 11.844 51.0201 11.148C50.3001 10.452 49.9401 9.476 49.9401 8.22V3.6H52.7721V8.136C52.7721 8.776 52.8881 9.232 53.1201 9.504C53.3521 9.768 53.6641 9.9 54.0561 9.9C54.4561 9.9 54.7681 9.768 54.9921 9.504C55.2241 9.232 55.3401 8.776 55.3401 8.136V3.6H58.1241V8.22C58.1241 9.476 57.7641 10.452 57.0441 11.148C56.3241 11.844 55.3201 12.192 54.0321 12.192ZM59.4223 12V3.6H63.4663C64.2503 3.6 64.9263 3.728 65.4943 3.984C66.0703 4.24 66.5143 4.608 66.8263 5.088C67.1383 5.56 67.2943 6.12 67.2943 6.768C67.2943 7.416 67.1383 7.976 66.8263 8.448C66.5143 8.912 66.0703 9.268 65.4943 9.516C64.9263 9.764 64.2503 9.888 63.4663 9.888H60.9943L62.2543 8.724V12H59.4223ZM64.4503 12L62.3863 8.94H65.3863L67.4743 12H64.4503ZM62.2543 9.036L60.9943 7.752H63.2863C63.6783 7.752 63.9663 7.664 64.1503 7.488C64.3423 7.312 64.4383 7.072 64.4383 6.768C64.4383 6.464 64.3423 6.224 64.1503 6.048C63.9663 5.872 63.6783 5.784 63.2863 5.784H60.9943L62.2543 4.5V9.036ZM37.132 18.6H39.964V27H37.132V18.6ZM34.516 27H31.684V18.6H34.516V27ZM37.324 23.904H34.324V21.576H37.324V23.904ZM45.7325 27.192C45.0525 27.192 44.4205 27.084 43.8365 26.868C43.2605 26.652 42.7605 26.348 42.3365 25.956C41.9125 25.556 41.5805 25.088 41.3405 24.552C41.1085 24.016 40.9925 23.432 40.9925 22.8C40.9925 22.16 41.1085 21.576 41.3405 21.048C41.5805 20.512 41.9125 20.048 42.3365 19.656C42.7605 19.256 43.2605 18.948 43.8365 18.732C44.4205 18.516 45.0525 18.408 45.7325 18.408C46.4205 18.408 47.0525 18.516 47.6285 18.732C48.2045 18.948 48.7045 19.256 49.1285 19.656C49.5525 20.048 49.8805 20.512 50.1125 21.048C50.3525 21.576 50.4725 22.16 50.4725 22.8C50.4725 23.432 50.3525 24.016 50.1125 24.552C49.8805 25.088 49.5525 25.556 49.1285 25.956C48.7045 26.348 48.2045 26.652 47.6285 26.868C47.0525 27.084 46.4205 27.192 45.7325 27.192ZM45.7325 24.9C45.9965 24.9 46.2405 24.852 46.4645 24.756C46.6965 24.66 46.8965 24.524 47.0645 24.348C47.2405 24.164 47.3765 23.944 47.4725 23.688C47.5685 23.424 47.6165 23.128 47.6165 22.8C47.6165 22.472 47.5685 22.18 47.4725 21.924C47.3765 21.66 47.2405 21.44 47.0645 21.264C46.8965 21.08 46.6965 20.94 46.4645 20.844C46.2405 20.748 45.9965 20.7 45.7325 20.7C45.4685 20.7 45.2205 20.748 44.9885 20.844C44.7645 20.94 44.5645 21.08 44.3885 21.264C44.2205 21.44 44.0885 21.66 43.9925 21.924C43.8965 22.18 43.8485 22.472 43.8485 22.8C43.8485 23.128 43.8965 23.424 43.9925 23.688C44.0885 23.944 44.2205 24.164 44.3885 24.348C44.5645 24.524 44.7645 24.66 44.9885 24.756C45.2205 24.852 45.4685 24.9 45.7325 24.9ZM55.5204 27.192C54.2324 27.192 53.2284 26.844 52.5084 26.148C51.7884 25.452 51.4284 24.476 51.4284 23.22V18.6H54.2604V23.136C54.2604 23.776 54.3764 24.232 54.6084 24.504C54.8404 24.768 55.1524 24.9 55.5444 24.9C55.9444 24.9 56.2564 24.768 56.4804 24.504C56.7124 24.232 56.8284 23.776 56.8284 23.136V18.6H59.6124V23.22C59.6124 24.476 59.2524 25.452 58.5324 26.148C57.8124 26.844 56.8084 27.192 55.5204 27.192ZM64.0426 27.192C63.3386 27.192 62.6586 27.112 62.0026 26.952C61.3466 26.792 60.8066 26.584 60.3826 26.328L61.2946 24.264C61.6946 24.496 62.1386 24.684 62.6266 24.828C63.1226 24.964 63.6026 25.032 64.0666 25.032C64.3386 25.032 64.5506 25.016 64.7026 24.984C64.8626 24.944 64.9786 24.892 65.0506 24.828C65.1226 24.756 65.1586 24.672 65.1586 24.576C65.1586 24.424 65.0746 24.304 64.9066 24.216C64.7386 24.128 64.5146 24.056 64.2346 24C63.9626 23.936 63.6626 23.872 63.3346 23.808C63.0066 23.736 62.6746 23.644 62.3386 23.532C62.0106 23.42 61.7066 23.272 61.4266 23.088C61.1546 22.904 60.9346 22.664 60.7666 22.368C60.5986 22.064 60.5146 21.688 60.5146 21.24C60.5146 20.72 60.6586 20.248 60.9466 19.824C61.2426 19.392 61.6786 19.048 62.2546 18.792C62.8386 18.536 63.5626 18.408 64.4266 18.408C64.9946 18.408 65.5546 18.468 66.1066 18.588C66.6586 18.708 67.1546 18.892 67.5946 19.14L66.7426 21.192C66.3266 20.984 65.9226 20.828 65.5306 20.724C65.1466 20.62 64.7706 20.568 64.4026 20.568C64.1306 20.568 63.9146 20.592 63.7546 20.64C63.5946 20.688 63.4786 20.752 63.4066 20.832C63.3426 20.912 63.3106 21 63.3106 21.096C63.3106 21.24 63.3946 21.356 63.5626 21.444C63.7306 21.524 63.9506 21.592 64.2226 21.648C64.5026 21.704 64.8066 21.764 65.1346 21.828C65.4706 21.892 65.8026 21.98 66.1306 22.092C66.4586 22.204 66.7586 22.352 67.0306 22.536C67.3106 22.72 67.5346 22.96 67.7026 23.256C67.8706 23.552 67.9546 23.92 67.9546 24.36C67.9546 24.872 67.8066 25.344 67.5106 25.776C67.2226 26.2 66.7906 26.544 66.2146 26.808C65.6386 27.064 64.9146 27.192 64.0426 27.192ZM71.3893 21.72H75.1333V23.76H71.3893V21.72ZM71.5813 24.864H75.7813V27H68.7973V18.6H75.6253V20.736H71.5813V24.864Z" fill="url(#paint1_linear_239_1176)"/>
<defs>
<linearGradient id="paint0_linear_239_1176" x1="3.26335e-07" y1="2.6" x2="17.1049" y2="18.0503" gradientUnits="userSpaceOnUse">
<stop stop-color="#B48811"/>
<stop offset="1" stop-color="#BB9B49"/>
</linearGradient>
<linearGradient id="paint1_linear_239_1176" x1="31" y1="3.1" x2="48.1586" y2="34.8175" gradientUnits="userSpaceOnUse">
<stop stop-color="#B48811"/>
<stop offset="1" stop-color="#BB9B49"/>
</linearGradient>
</defs>
</svg>
