<svg width="24" height="24" viewBox="0 0 24 24" fill="none" xmlns="http://www.w3.org/2000/svg">
<circle cx="12" cy="12" r="12" fill="#3B5998"/>
<path d="M18.857 13.2627C19.3126 9.24819 18.6381 6.71374 17.4213 5.56742L17.422 5.56676C15.4581 3.60915 8.82596 3.31941 6.47649 5.65468C5.4214 6.797 5.04976 8.47353 5.00903 10.549C4.96831 12.6252 4.91994 16.5144 8.38241 17.5695H8.38559L8.38241 19.1808C8.38241 19.1808 8.35886 19.8335 8.75723 19.9647C9.21288 20.1192 9.41907 19.8162 10.8362 18.0444C13.2061 18.2596 15.0261 17.7667 15.2329 17.6947C15.7114 17.5269 18.4192 17.1519 18.857 13.2627ZM11.0698 16.9108C11.0698 16.9108 9.56987 18.8684 9.1034 19.3766C8.95067 19.5418 8.78333 19.5264 8.78586 19.1987C8.78586 18.9836 8.79733 16.5238 8.79733 16.5238C5.86177 15.6432 6.03485 12.3315 6.06667 10.599C6.09849 8.86585 6.4014 7.44643 7.29486 6.49061C9.35605 4.46772 15.1705 4.91999 16.652 6.37737C18.4631 8.05789 17.8184 12.8057 17.8223 12.9676C17.45 16.214 15.2558 16.4199 14.8523 16.5604C14.6799 16.6203 13.0794 17.0513 11.0698 16.9108Z" fill="white"/>
<path d="M12.1819 7C11.9394 7 11.9394 7.35145 12.1819 7.35438C14.0642 7.36785 15.6143 8.58741 15.6314 10.8244C15.6314 11.0605 16.0031 11.0575 16 10.8215H15.9993C15.9792 8.41109 14.2866 7.01347 12.1819 7Z" fill="white"/>
<path d="M14.59 10.8007C14.5837 11.0587 14.9956 11.071 14.9991 10.8098C15.0334 9.33942 14.055 8.12827 12.2166 8.00061C11.9473 7.98246 11.9194 8.37452 12.1879 8.39266C13.7823 8.50477 14.6222 9.51308 14.59 10.8007Z" fill="white"/>
<path d="M14.3727 12.1636C14.0339 11.9739 13.6889 12.0919 13.5463 12.2784L13.2479 12.6519C13.0963 12.8415 12.8131 12.8163 12.8131 12.8163C10.7459 12.2876 10.1932 10.1954 10.1932 10.1954C10.1932 10.1954 10.1678 9.9121 10.3571 9.76021L10.7302 9.46167C10.9167 9.31838 11.0347 8.97345 10.8447 8.63447C10.3372 7.74754 9.99634 7.44172 9.8228 7.20688C9.64037 6.98598 9.366 6.93623 9.08072 7.08549H9.07456C8.48128 7.42116 7.83177 8.04937 8.03959 8.69615C8.39417 9.37811 9.04573 11.552 11.1225 13.1945C12.0984 13.9713 13.643 14.7673 14.2987 14.9511L14.3048 14.9604C14.9509 15.1687 15.5791 14.5159 15.9145 13.9249V13.9202C16.0634 13.6343 16.014 13.3636 15.7966 13.1865C15.4111 12.823 14.8295 12.4216 14.3727 12.1636Z" fill="white"/>
<path d="M12.2352 9.48778C13.0575 9.5329 13.4562 9.93716 13.499 10.7676C13.5144 11.0921 14.015 11.0696 13.9997 10.745C13.9448 9.66092 13.3442 9.0569 12.2625 9.00052C11.9331 8.98196 11.9023 9.46923 12.2352 9.48778Z" fill="white"/>
</svg>
