<svg width="25" height="25" viewBox="0 0 25 25" fill="none" xmlns="http://www.w3.org/2000/svg">
<rect x="1" y="1" width="23" height="23" rx="11.5" fill="white"/>
<path d="M18.0998 6.88106C16.7597 5.50156 14.9072 4.75269 13.0153 4.75269C8.99503 4.75269 5.76305 8.02408 5.80246 12.0049C5.80246 13.2662 6.15719 14.488 6.74841 15.5916L5.72363 19.336L9.54683 18.3507C10.611 18.9419 11.7935 19.2178 12.9759 19.2178C16.9567 19.2178 20.1887 15.9464 20.1887 11.9655C20.1887 10.0342 19.4399 8.22115 18.0998 6.88106ZM13.0153 17.9959C11.9511 17.9959 10.8869 17.72 9.98039 17.1682L9.7439 17.05L7.45787 17.6412L8.04908 15.3946L7.89143 15.1581C6.15719 12.3597 6.98489 8.65471 9.82273 6.92048C12.6606 5.18624 16.3261 6.01395 18.0603 8.85178C19.7946 11.6896 18.9669 15.3552 16.129 17.0894C15.2225 17.6806 14.1189 17.9959 13.0153 17.9959ZM16.4838 13.6209L16.0502 13.4239C16.0502 13.4239 15.4196 13.148 15.0254 12.9509C14.986 12.9509 14.9466 12.9115 14.9072 12.9115C14.7889 12.9115 14.7101 12.9509 14.6313 12.9903C14.6313 12.9903 14.5919 13.0297 14.0401 13.6603C14.0007 13.7392 13.9218 13.7786 13.843 13.7786H13.8036C13.7642 13.7786 13.6853 13.7392 13.6459 13.6998L13.4489 13.6209C13.0153 13.4239 12.6212 13.1874 12.3058 12.8721C12.227 12.7932 12.1088 12.7144 12.0299 12.6356C11.754 12.3597 11.4781 12.0444 11.2811 11.6896L11.2417 11.6108C11.2022 11.5714 11.2022 11.532 11.1628 11.4531C11.1628 11.3743 11.1628 11.2955 11.2022 11.2561C11.2022 11.2561 11.3599 11.059 11.4781 10.9407C11.557 10.8619 11.5964 10.7437 11.6752 10.6648C11.754 10.5466 11.7935 10.3889 11.754 10.2707C11.7146 10.0736 11.2417 9.00944 11.1234 8.77296C11.0446 8.65471 10.9658 8.6153 10.8475 8.57588H10.7293C10.6504 8.57588 10.5322 8.57588 10.4139 8.57588C10.3351 8.57588 10.2563 8.6153 10.1775 8.6153L10.138 8.65471C10.0592 8.69413 9.98039 8.77296 9.90156 8.81237C9.82273 8.8912 9.78332 8.97003 9.70449 9.04886C9.42859 9.40359 9.27093 9.83714 9.27093 10.2707C9.27093 10.586 9.34976 10.9013 9.468 11.1772L9.50742 11.2955C9.86215 12.0444 10.3351 12.7144 10.9658 13.3056L11.1234 13.4633C11.2417 13.5815 11.3599 13.6603 11.4387 13.7786C12.2664 14.488 13.2124 15.0004 14.2766 15.2763C14.3948 15.3157 14.5525 15.3157 14.6707 15.3552C14.7889 15.3552 14.9466 15.3552 15.0648 15.3552C15.2619 15.3552 15.4984 15.2763 15.6561 15.1975C15.7743 15.1187 15.8531 15.1187 15.932 15.0398L16.0108 14.961C16.0896 14.8822 16.1685 14.8428 16.2473 14.7639C16.3261 14.6851 16.4049 14.6063 16.4444 14.5275C16.5232 14.3698 16.5626 14.1727 16.602 13.9757C16.602 13.8968 16.602 13.7786 16.602 13.6998C16.602 13.6998 16.5626 13.6603 16.4838 13.6209Z" fill="#43BA54"/>
<circle cx="12.5" cy="12.5" r="12" stroke="#43BA54"/>
</svg>
